# xmcd
#
# Track frame offsets: 
#        150
#        15815
#        33375
#        50105
#        69732
#        85404
#        103057
#        123927
#        145437
#        159510
#        177315
#        192012
#        222070
#        241855
#
# Disc length: 3615 seconds
#
# Revision: 1
# Processed by: cddbd v1.5.2PL0 Copyright (c) Steve Scherf et al.
# Submitted via: ExactAudioCopy v1.1
#
DISCID=bd0e1d0e
DTITLE=shikisha - shikisha
DYEAR=1996
DGENRE=world
TTITLE0=LA LE LA
TTITLE1=HIT ME WITH YOUR RHYTHM
TTITLE2=PRETTY VACANT
TTITLE3=SHIKISHA
TTITLE4=PATA PATA
TTITLE5=BAYASIBUZA
TTITLE6=EMABOMVINI
TTITLE7=SOWETO BLUES
TTITLE8=KHUZANI
TTITLE9=NOMINDLELA
TTITLE10=BAYEZA
TTITLE11=PRETTY VACANT(Do The Duck Mix)
TTITLE12=SHIKISHA(Raggastyle Mix)
TTITLE13=PATA PATA(Tribe Mix)
EXTD=YEAR: 1996 ID3G: 28
EXTT0=
EXTT1=
EXTT2=
EXTT3=
EXTT4=
EXTT5=
EXTT6=
EXTT7=
EXTT8=
EXTT9=
EXTT10=
EXTT11=
EXTT12=
EXTT13=
PLAYORDER=
